<?xml version="1.0" encoding="UTF-8"?>
<svg width="88px" height="88px" viewBox="0 0 88 88" version="1.1" xmlns="http://www.w3.org/2000/svg" xmlns:xlink="http://www.w3.org/1999/xlink">
    <title>Slice 1</title>
    <defs>
        <polygon id="path-1" points="0 127.56133 254.45866 127.56133 254.45866 0 0 0"></polygon>
    </defs>
    <g id="Page-1" stroke="none" stroke-width="1" fill="none" fill-rule="evenodd">
        <g id="mila-logo-dark" transform="translate(-20.000000, -20.000530)">
            <g id="g14-Clipped" transform="translate(127.229330, 63.780665) scale(-1, 1) rotate(-180.000000) translate(-127.229330, -63.780665) translate(0.000000, 0.000000)">
                <mask id="mask-2" fill="white">
                    <use xlink:href="#path-1"></use>
                </mask>
                <g id="path16"></g>
                <g id="g14" mask="url(#mask-2)">
                    <g transform="translate(20.728133, 20.511866)">
                        <g id="g36" transform="translate(58.862399, 1.550667)">
                            <path d="M5.08266654,2.53733327 C5.08266654,1.1413333 3.94133323,0 2.53733327,0 C1.1413333,0 0,1.1413333 0,2.53733327 C0,3.94133323 1.1413333,5.07466654 2.53733327,5.07466654 C3.94133323,5.07466654 5.08266654,3.94133323 5.08266654,2.53733327" id="path38" fill="#FFFFFF" fill-rule="nonzero"></path>
                        </g>
                        <g id="g40" transform="translate(58.862399, 40.701066)">
                            <path d="M5.08266654,2.53599994 C5.08266654,1.13999997 3.94266657,0 2.53733327,0 C1.1413333,0 0,1.13999997 0,2.53599994 C0,3.94133323 1.1413333,5.07333321 2.53733327,5.07333321 C3.94266657,5.07333321 5.08266654,3.94133323 5.08266654,2.53599994" id="path42" fill="#FFFFFF" fill-rule="nonzero"></path>
                        </g>
                        <g id="g44" transform="translate(82.042665, 40.701066)">
                            <path d="M5.08399987,2.53599994 C5.08399987,1.13999997 3.94266657,0 2.5386666,0 C1.14266664,0 0,1.13999997 0,2.53599994 C0,3.94133323 1.14266664,5.07333321 2.5386666,5.07333321 C3.94266657,5.07333321 5.08399987,3.94133323 5.08399987,2.53599994" id="path46" fill="#FFFFFF" fill-rule="nonzero"></path>
                        </g>
                        <g id="g48" transform="translate(70.452798, 21.126133)">
                            <path d="M5.08266654,2.53599994 C5.08266654,1.13999997 3.94266657,0 2.53733327,0 C1.1413333,0 0,1.13999997 0,2.53599994 C0,3.94133323 1.1413333,5.07333321 2.53733327,5.07333321 C3.94266657,5.07333321 5.08266654,3.94133323 5.08266654,2.53599994" id="path50" fill="#FFFFFF" fill-rule="nonzero"></path>
                        </g>
                        <g id="g52" transform="translate(47.279065, 21.126133)">
                            <path d="M5.08266654,2.53599994 C5.08266654,1.1413333 3.94133323,0 2.53733327,0 C1.1413333,0 0,1.1413333 0,2.53599994 C0,3.94133323 1.1413333,5.07333321 2.53733327,5.07333321 C3.94133323,5.07333321 5.08266654,3.94133323 5.08266654,2.53599994" id="path54" fill="#FFFFFF" fill-rule="nonzero"></path>
                        </g>
                        <g id="g56" transform="translate(70.378532, 60.274532)">
                            <path d="M5.08399987,2.53733327 C5.08399987,1.1413333 3.94266657,0 2.5386666,0 C1.14266664,0 0,1.1413333 0,2.53733327 C0,3.94133323 1.14266664,5.07466654 2.5386666,5.07466654 C3.94266657,5.07466654 5.08399987,3.94133323 5.08399987,2.53733327" id="path58" fill="#FFFFFF" fill-rule="nonzero"></path>
                        </g>
                        <g id="g60" transform="translate(47.193065, 60.274532)">
                            <path d="M5.08266654,2.53733327 C5.08266654,1.1413333 3.94133323,0 2.53733327,0 C1.13999997,0 0,1.1413333 0,2.53733327 C0,3.94133323 1.13999997,5.07466654 2.53733327,5.07466654 C3.94133323,5.07466654 5.08266654,3.94133323 5.08266654,2.53733327" id="path62" fill="#FFFFFF" fill-rule="nonzero"></path>
                        </g>
                        <g id="g64" transform="translate(58.862399, 79.850131)">
                            <path d="M5.08266654,2.53599994 C5.08266654,1.13999997 3.94133323,0 2.53733327,0 C1.1413333,0 0,1.13999997 0,2.53599994 C0,3.94133323 1.1413333,5.07333321 2.53733327,5.07333321 C3.94133323,5.07333321 5.08266654,3.94133323 5.08266654,2.53599994" id="path66" fill="#FFFFFF" fill-rule="nonzero"></path>
                        </g>
                        <g id="g68" transform="translate(50.101065, 81.713065)">
                            <path d="M6.86933316,0.051333332 L0.614666651,0.051333332 C0.27466666,0.051333332 0,0.327333325 0,0.667333317 C0,1.00599997 0.27466666,1.28199997 0.614666651,1.28199997 L6.86933316,1.28199997 C7.20933315,1.28199997 7.48399981,1.00599997 7.48399981,0.667333317 C7.48399981,0.327333325 7.20933315,0.051333332 6.86933316,0.051333332" id="path70" fill="#FFFFFF" fill-rule="nonzero"></path>
                        </g>
                        <g id="g72" transform="translate(63.060867, 46.420666)">
                            <path d="M0.613931347,0 C0.507264683,0 0.400598019,0.0279999993 0.301931355,0.0853333312 C0.00993136199,0.257333327 -0.0874019689,0.635999984 0.0859313601,0.927999977 L7.12859785,12.8639997 C7.30059785,13.157333 7.67793117,13.2546663 7.9712645,13.0826663 C8.26326449,12.909333 8.36059782,12.5319997 8.18726449,12.2399997 L1.144598,0.302666659 C1.02993134,0.107999997 0.824598008,0 0.613931347,0" id="path74" fill="#FFFFFF" fill-rule="nonzero"></path>
                        </g>
                        <g id="g76" transform="translate(51.501276, 26.830133)">
                            <path d="M0.614322656,0 C0.507655992,0 0.400989328,0.0279999993 0.302322664,0.0839999979 C0.0103226712,0.257333327 -0.0870106597,0.635999984 0.084989336,0.927999977 L7.14765583,12.8959997 C7.31965582,13.189333 7.69698915,13.285333 7.99032247,13.113333 C8.28232246,12.941333 8.3796558,12.5639997 8.20632247,12.2706664 L1.14498931,0.302666659 C1.03032265,0.107999997 0.824989317,0 0.614322656,0" id="path78" fill="#FFFFFF" fill-rule="nonzero"></path>
                        </g>
                        <g id="g80" transform="translate(45.107410, 16.065200)">
                            <path d="M0.614322656,0 C0.507655992,0 0.400989328,0.0279999993 0.302322664,0.0839999979 C0.0103226712,0.257333327 -0.0870106597,0.635999984 0.084989336,0.926666643 L1.98365596,4.0719999 C2.15565595,4.36399989 2.53165594,4.46133322 2.8263226,4.28933323 C3.11698926,4.11733323 3.21565592,3.73999991 3.0423226,3.44666658 L1.14498931,0.302666659 C1.03032265,0.107999997 0.824989317,0 0.614322656,0" id="path82" fill="#FFFFFF" fill-rule="nonzero"></path>
                        </g>
                        <g id="g84" transform="translate(74.653400, 26.845733)">
                            <path d="M0.613931347,0 C0.507264683,0 0.400598019,0.0279999993 0.301931355,0.0853333312 C0.00993136199,0.25866666 -0.0874019689,0.635999984 0.0859313601,0.927999977 L7.14593118,12.8959997 C7.31926451,13.189333 7.69659784,13.285333 7.98859783,13.1119997 C8.28193116,12.9399997 8.37926449,12.5626664 8.20593116,12.2706664 L1.144598,0.302666659 C1.02993134,0.107999997 0.824598008,0 0.613931347,0" id="path86" fill="#FFFFFF" fill-rule="nonzero"></path>
                        </g>
                        <g id="g88" transform="translate(63.091142, 7.250000)">
                            <path d="M0.614322656,0 C0.507655992,0 0.400989328,0.0279999993 0.302322664,0.0853333312 C0.0103226712,0.25866666 -0.0870106597,0.635999984 0.084989336,0.927999977 L7.14765583,12.897333 C7.31965582,13.189333 7.69698915,13.2866663 7.99032247,13.1146663 C8.28232246,12.941333 8.3796558,12.5639997 8.2076558,12.2719997 L1.14498931,0.302666659 C1.03032265,0.107999997 0.824989317,0 0.614322656,0" id="path90" fill="#FFFFFF" fill-rule="nonzero"></path>
                        </g>
                        <g id="g92" transform="translate(51.449143, 65.957732)">
                            <path d="M0.614322656,0 C0.507655992,0 0.400989328,0.0279999993 0.302322664,0.0853333312 C0.0103226712,0.257333327 -0.0870106597,0.635999984 0.084989336,0.926666643 L7.16898916,12.933333 C7.34098915,13.225333 7.71965581,13.3239997 8.0116558,13.1506663 C8.30498913,12.977333 8.40098913,12.601333 8.22898913,12.3079997 L1.14498931,0.302666659 C1.03032265,0.107999997 0.824989317,0 0.614322656,0" id="path94" fill="#FFFFFF" fill-rule="nonzero"></path>
                        </g>
                        <g id="g96" transform="translate(42.869676, 51.425199)">
                            <path d="M0.614322656,0 C0.507655992,0 0.400989328,0.0279999993 0.302322664,0.0853333312 C0.0103226712,0.257333327 -0.0870106597,0.635999984 0.084989336,0.927999977 L4.17032257,7.8399998 C4.34098923,8.13333313 4.71965589,8.23066646 5.01165588,8.05733313 C5.30498921,7.88533314 5.4009892,7.50799981 5.22765587,7.21599982 L1.14498931,0.302666659 C1.03032265,0.107999997 0.824989317,0 0.614322656,0" id="path98" fill="#FFFFFF" fill-rule="nonzero"></path>
                        </g>
                        <g id="g100" transform="translate(42.923276, 26.836666)">
                            <path d="M4.61032256,0 C4.39965589,0 4.19432257,0.107999997 4.08098924,0.302666659 L0.084989336,7.07199982 C-0.0870106597,7.36399982 0.0103226712,7.74133314 0.302322664,7.91466647 C0.59565599,8.08666646 0.97165598,7.98933313 1.14365598,7.69733314 L5.13965588,0.927999977 C5.31165587,0.635999984 5.21565587,0.257333327 4.92232255,0.0853333312 C4.82498922,0.0279999993 4.71698922,0 4.61032256,0" id="path102" fill="#FFFFFF" fill-rule="nonzero"></path>
                        </g>
                        <g id="g104" transform="translate(51.414251, 7.246800)">
                            <path d="M7.67788064,0 C7.46721398,0 7.26188065,0.107999997 7.14854732,0.302666659 L0.0858808285,12.2719997 C-0.0874525005,12.565333 0.00988083039,12.9426663 0.303214156,13.1146663 C0.595214149,13.2866663 0.972547473,13.1906663 1.1458808,12.897333 L8.20721396,0.927999977 C8.37921395,0.635999984 8.28321396,0.257333327 7.98988063,0.0853333312 C7.8925473,0.0279999993 7.7845473,0 7.67788064,0" id="path106" fill="#FFFFFF" fill-rule="nonzero"></path>
                        </g>
                        <g id="g108" transform="translate(63.035483, 66.024132)">
                            <path d="M7.65758173,0 C7.44691507,0 7.24158174,0.107999997 7.12691508,0.302666659 L0.0855819194,12.237333 C-0.0877514096,12.529333 0.0109152546,12.9066663 0.302915247,13.0799997 C0.59491524,13.2519997 0.972248564,13.1546663 1.14424856,12.8626663 L8.18691505,0.926666644 C8.35891505,0.635999984 8.26291505,0.257333327 7.96958172,0.0853333312 C7.87091506,0.0279999993 7.76424839,0 7.65758173,0" id="path110" fill="#FFFFFF" fill-rule="nonzero"></path>
                        </g>
                        <g id="g112" transform="translate(45.140651, 66.074932)">
                            <path d="M2.46454744,0 C2.25388077,0 2.04854745,0.107999997 1.93388078,0.302666659 L0.0858808285,3.42666658 C-0.0874525005,3.71999991 0.00988083039,4.0959999 0.303214156,4.26933323 C0.595214149,4.44133322 0.972547473,4.34399989 1.1458808,4.0519999 L2.99388076,0.927999977 C3.16588075,0.635999984 3.06988075,0.257333327 2.77654743,0.0853333312 C2.67788076,0.0279999993 2.5712141,0 2.46454744,0" id="path114" fill="#FFFFFF" fill-rule="nonzero"></path>
                        </g>
                        <g id="g116" transform="translate(51.483318, 46.449866)">
                            <path d="M7.70188064,0 C7.49121398,0 7.28588065,0.107999997 7.17121398,0.302666659 L0.0858808285,12.3106664 C-0.0874525005,12.6039997 0.00988083039,12.981333 0.303214156,13.153333 C0.593880816,13.3266663 0.972547473,13.229333 1.14454747,12.937333 L8.23121396,0.926666643 C8.40321395,0.635999984 8.30588062,0.257333327 8.01388063,0.0853333312 C7.91521397,0.0279999993 7.8085473,0 7.70188064,0" id="path118" fill="#FFFFFF" fill-rule="nonzero"></path>
                        </g>
                        <g id="g120" transform="translate(63.064467, 26.856799)">
                            <path d="M7.68059784,0 C7.46993118,0 7.26459785,0.107999997 7.14993118,0.303999992 L0.0859313601,12.277333 C-0.0874019689,12.569333 0.00993136199,12.945333 0.301931355,13.1186663 C0.596598014,13.2906663 0.972598005,13.1946663 1.144598,12.901333 L8.20993116,0.927999977 C8.38193115,0.635999984 8.28459782,0.25866666 7.99259783,0.0853333312 C7.89393116,0.0279999993 7.7872645,0 7.68059784,0" id="path122" fill="#FFFFFF" fill-rule="nonzero"></path>
                        </g>
                        <g id="g124" transform="translate(53.549332, 62.145332)">
                            <path d="M14.937333,0.051333332 L0.615999985,0.051333332 C0.275999993,0.051333332 0,0.327333325 0,0.665999983 C0,1.00599997 0.275999993,1.28199997 0.615999985,1.28199997 L14.937333,1.28199997 C15.277333,1.28199997 15.5533329,1.00599997 15.5533329,0.665999983 C15.5533329,0.327333325 15.277333,0.051333332 14.937333,0.051333332" id="path126" fill="#FFFFFF" fill-rule="nonzero"></path>
                        </g>
                        <g id="g128" transform="translate(74.578209, 46.398532)">
                            <path d="M7.69432248,0 C7.48365582,0 7.27832249,0.107999997 7.16498916,0.302666659 L0.084989336,12.2999997 C-0.0870106597,12.5919997 0.0103226712,12.969333 0.302322664,13.141333 C0.59565599,13.3146663 0.972989314,13.217333 1.14498931,12.9239997 L8.2236558,0.927999977 C8.39565579,0.635999984 8.2996558,0.257333327 8.00632247,0.0853333312 C7.90898914,0.0279999993 7.80098914,0 7.69432248,0" id="path130" fill="#FFFFFF" fill-rule="nonzero"></path>
                        </g>
                        <g id="g132" transform="translate(40.067732, 62.145865)">
                            <path d="M5.2333332,1.2813333 C5.57333319,1.2813333 5.84799985,1.00533331 5.84799985,0.66666665 C5.84799985,0.326666659 5.57199986,0.0506666654 5.2333332,0.0506666654 L5.2333332,0.0506666654 L0.614666651,0.0519999987 C0.27466666,0.0519999987 0,0.327999992 0,0.667999983 C0,1.00666664 0.275999993,1.28266663 0.614666651,1.28266663 L5.2333332,1.2813333 Z" id="path134" fill="#FFFFFF" fill-rule="nonzero"></path>
                        </g>
                        <g id="g136" transform="translate(48.397065, 42.570532)">
                            <path d="M8.57333312,0.051333332 L0.615999985,0.051333332 C0.275999993,0.051333332 0,0.327333325 0,0.667333317 C0,1.00599997 0.275999993,1.28199997 0.615999985,1.28199997 L8.57333312,1.28199997 C8.91333311,1.28199997 9.18799977,1.00599997 9.18799977,0.667333317 C9.18799977,0.327333325 8.91333311,0.051333332 8.57333312,0.051333332" id="path138" fill="#FFFFFF" fill-rule="nonzero"></path>
                        </g>
                        <g id="g140" transform="translate(65.221998, 42.570532)">
                            <path d="M14.9306663,0.051333332 L0.615999985,0.051333332 C0.275999993,0.051333332 0,0.327333325 0,0.667333317 C0,1.00599997 0.275999993,1.28199997 0.615999985,1.28199997 L14.9306663,1.28199997 C15.2706663,1.28199997 15.5453329,1.00599997 15.5453329,0.667333317 C15.5453329,0.327333325 15.2706663,0.051333332 14.9306663,0.051333332" id="path142" fill="#FFFFFF" fill-rule="nonzero"></path>
                        </g>
                        <g id="g144" transform="translate(40.085732, 22.995599)">
                            <path d="M5.30266653,0.051333332 L0.615999985,0.051333332 C0.275999993,0.051333332 0,0.327333325 0,0.667333317 C0,1.00599997 0.275999993,1.28199997 0.615999985,1.28199997 L5.30266653,1.28199997 C5.64266653,1.28199997 5.91733319,1.00599997 5.91733319,0.667333317 C5.91733319,0.327333325 5.64266653,0.051333332 5.30266653,0.051333332" id="path146" fill="#FFFFFF" fill-rule="nonzero"></path>
                        </g>
                        <g id="g148" transform="translate(53.637599, 22.995599)">
                            <path d="M14.9239996,0.051333332 L0.614666651,0.051333332 C0.27466666,0.051333332 0,0.327333325 0,0.667333317 C0,1.00599997 0.27466666,1.28199997 0.614666651,1.28199997 L14.9239996,1.28199997 C15.2639996,1.28199997 15.5386663,1.00599997 15.5386663,0.667333317 C15.5386663,0.327333325 15.2639996,0.051333332 14.9239996,0.051333332" id="path150" fill="#FFFFFF" fill-rule="nonzero"></path>
                        </g>
                        <g id="g152" transform="translate(50.115732, 3.422667)">
                            <path d="M6.85599983,0.0519999987 L0.614666651,0.0519999987 C0.27466666,0.0519999987 0,0.326666658 0,0.66666665 C0,1.00666664 0.27466666,1.2813333 0.614666651,1.2813333 L6.85599983,1.2813333 C7.19599982,1.2813333 7.47066648,1.00666664 7.47066648,0.66666665 C7.47066648,0.326666658 7.19599982,0.0519999987 6.85599983,0.0519999987" id="path154" fill="#FFFFFF" fill-rule="nonzero"></path>
                        </g>
                        <g id="g156" transform="translate(0.000667, 51.369865)">
                            <path d="M10.2906664,0 C15.9666663,0 20.5839995,4.61733322 20.5839995,10.2919997 C20.5839995,15.9679996 15.9666663,20.5839995 10.2906664,20.5839995 C4.61599988,20.5839995 0,15.9679996 0,10.2919997 C0,4.61733322 4.61599988,0 10.2906664,0" id="path158" fill="#FFFFFF" fill-rule="nonzero"></path>
                        </g>
                        <g id="g160" transform="translate(23.739866, 54.306532)">
                            <path d="M0,7.53466648 C0,3.37999992 3.38133325,0 7.53466648,0 C11.6906664,0 15.069333,3.37999992 15.069333,7.53466648 C15.069333,11.689333 11.6906664,15.069333 7.53466648,15.069333 C3.38133325,15.069333 0,11.689333 0,7.53466648" id="path162" fill="#FFFFFF" fill-rule="nonzero"></path>
                        </g>
                        <g id="g164" transform="translate(16.902666, 72.985732)">
                            <path d="M5.86133319,0 C9.09333311,0 11.7226664,2.62933327 11.7226664,5.86133319 C11.7226664,9.09333311 9.09333311,11.7226664 5.86133319,11.7226664 C2.62933327,11.7226664 0,9.09333311 0,5.86133319 C0,2.62933327 2.62933327,0 5.86133319,0" id="path166" fill="#FFFFFF" fill-rule="nonzero"></path>
                        </g>
                        <g id="g168" transform="translate(14.562400, 36.388666)">
                            <path d="M6.65733317,0 C10.3279997,0 13.3146663,2.98666659 13.3146663,6.65733317 C13.3146663,10.3293331 10.3279997,13.3146663 6.65733317,13.3146663 C2.98666659,13.3146663 0,10.3293331 0,6.65733317 C0,2.98666659 2.98666659,0 6.65733317,0" id="path170" fill="#FFFFFF" fill-rule="nonzero"></path>
                        </g>
                        <g id="g172" transform="translate(0.852533, 37.768266)">
                            <path d="M5.2773332,0 C8.1879998,0 10.5546664,2.36799994 10.5546664,5.2773332 C10.5546664,8.1879998 8.1879998,10.5559997 5.2773332,10.5559997 C2.36666661,10.5559997 0,8.1879998 0,5.2773332 C0,2.36799994 2.36666661,0 5.2773332,0" id="path174" fill="#FFFFFF" fill-rule="nonzero"></path>
                        </g>
                        <g id="g176" transform="translate(33.940932, 70.843198)">
                            <path d="M7.81466647,0 C12.1239997,0 15.6306663,3.50533325 15.6306663,7.81466647 C15.6306663,12.125333 12.1239997,15.6306663 7.81466647,15.6306663 C3.50533325,15.6306663 0,12.125333 0,7.81466647 C0,3.50533325 3.50533325,0 7.81466647,0" id="path178" fill="#FFFFFF" fill-rule="nonzero"></path>
                        </g>
                        <g id="g180" transform="translate(16.582666, 2.140667)">
                            <path d="M6.18133318,0 C9.58933309,0 12.361333,2.77333326 12.361333,6.17999985 C12.361333,9.58933309 9.58933309,12.3626664 6.18133318,12.3626664 C2.77199993,12.3626664 0,9.58933309 0,6.17999985 C0,2.77333326 2.77199993,0 6.18133318,0" id="path182" fill="#FFFFFF" fill-rule="nonzero"></path>
                        </g>
                        <g id="g184" transform="translate(33.940932, 0.000000)">
                            <path d="M7.81466647,0 C12.1239997,0 15.6306663,3.50533325 15.6306663,7.8159998 C15.6306663,12.1266664 12.1239997,15.6319996 7.81466647,15.6319996 C3.50533325,15.6319996 0,12.1266664 0,7.8159998 C0,3.50533325 3.50533325,0 7.81466647,0" id="path186" fill="#FFFFFF" fill-rule="nonzero"></path>
                        </g>
                        <g id="g188" transform="translate(0.000000, 14.520266)">
                            <path d="M10.2933331,0 C4.61866655,0 0,4.61733322 0,10.2919997 C0,15.9679996 4.61866655,20.5839995 10.2933331,20.5839995 C15.9679996,20.5839995 20.5853328,15.9679996 20.5853328,10.2919997 C20.5853328,4.61733322 15.9679996,0 10.2933331,0" id="path190" fill="#FFFFFF" fill-rule="nonzero"></path>
                        </g>
                        <g id="g192" transform="translate(31.031866, 35.053466)">
                            <path d="M8.04533313,0 C3.60933324,0 0,3.60933324 0,8.0439998 C0,12.4799997 3.60933324,16.0893329 8.04533313,16.0893329 C12.481333,16.0893329 16.0893329,12.4799997 16.0893329,8.0439998 C16.0893329,3.60933324 12.481333,0 8.04533313,0" id="path194" fill="#FFFFFF" fill-rule="nonzero"></path>
                        </g>
                        <g id="g196" transform="translate(23.739866, 16.819600)">
                            <path d="M0,7.53466648 C0,3.37999992 3.38133325,0 7.53466648,0 C11.6906664,0 15.069333,3.37999992 15.069333,7.53466648 C15.069333,11.6906664 11.6906664,15.069333 7.53466648,15.069333 C3.38133325,15.069333 0,11.6906664 0,7.53466648" id="path198" fill="#FFFFFF" fill-rule="nonzero"></path>
                        </g>
                    </g>
                </g>
            </g>
        </g>
    </g>
</svg>